<svg width="3259" height="787" viewBox="0 0 3259 787" fill="none" xmlns="http://www.w3.org/2000/svg">
<path d="M1144.94 393.8H1194.14V537H1151.34V520.6C1131.34 534.2 1106.27 541 1076.14 541C1050.27 541 1026.54 535.4 1004.94 524.2C983.337 513 966.003 496.733 952.937 475.4C940.137 454.067 933.737 428.6 933.737 399C933.737 371 940.27 345.933 953.337 323.8C966.403 301.4 984.403 284.067 1007.34 271.8C1030.54 259.267 1056.54 253 1085.34 253C1108.8 253 1130.14 256.867 1149.34 264.6C1168.54 272.333 1184.67 283.667 1197.74 298.6L1164.94 330.6C1143.6 309.267 1117.87 298.6 1087.74 298.6C1068 298.6 1050.4 302.867 1034.94 311.4C1019.74 319.667 1007.74 331.4 998.937 346.6C990.403 361.8 986.137 379.133 986.137 398.6C986.137 419.133 990.403 436.867 998.937 451.8C1007.74 466.467 1019.34 477.667 1033.74 485.4C1048.14 492.867 1063.87 496.6 1080.94 496.6C1092.94 496.6 1104.4 494.733 1115.34 491C1126.54 487.267 1136.4 481.8 1144.94 474.6V393.8Z" fill="#0B2C31"/>
<path d="M1245.92 323.4H1295.92V537H1245.92V323.4ZM1271.12 288.2C1262.05 288.2 1254.45 285.4 1248.32 279.8C1242.19 273.933 1239.12 266.733 1239.12 258.2C1239.12 249.667 1242.19 242.6 1248.32 237C1254.45 231.133 1262.05 228.2 1271.12 228.2C1280.19 228.2 1287.79 231 1293.92 236.6C1300.05 241.933 1303.12 248.733 1303.12 257C1303.12 265.8 1300.05 273.267 1293.92 279.4C1288.05 285.267 1280.45 288.2 1271.12 288.2Z" fill="#0B2C31"/>
<path d="M1470.75 321C1497.68 321 1519.28 328.867 1535.55 344.6C1551.81 360.333 1559.95 383.667 1559.95 414.6V537H1509.95V421C1509.95 402.333 1505.55 388.333 1496.75 379C1487.95 369.4 1475.41 364.6 1459.15 364.6C1440.75 364.6 1426.21 370.2 1415.55 381.4C1404.88 392.333 1399.55 408.2 1399.55 429V537H1349.55V323.4H1397.15V351C1405.41 341.133 1415.81 333.667 1428.35 328.6C1440.88 323.533 1455.01 321 1470.75 321Z" fill="#0B2C31"/>
<path d="M1825.33 323.4V504.6C1825.33 579.8 1786.93 617.4 1710.13 617.4C1689.59 617.4 1670.13 614.733 1651.73 609.4C1633.33 604.333 1618.13 596.867 1606.13 587L1628.53 549.4C1637.86 557.133 1649.59 563.267 1663.73 567.8C1678.13 572.6 1692.66 575 1707.33 575C1730.79 575 1747.99 569.667 1758.93 559C1769.86 548.333 1775.33 532.067 1775.33 510.2V499C1766.79 508.333 1756.39 515.4 1744.13 520.2C1731.86 525 1718.39 527.4 1703.73 527.4C1683.46 527.4 1665.06 523.133 1648.53 514.6C1632.26 505.8 1619.33 493.533 1609.73 477.8C1600.39 462.067 1595.73 444.067 1595.73 423.8C1595.73 403.533 1600.39 385.667 1609.73 370.2C1619.33 354.467 1632.26 342.333 1648.53 333.8C1665.06 325.267 1683.46 321 1703.73 321C1719.19 321 1733.19 323.533 1745.73 328.6C1758.53 333.667 1769.19 341.4 1777.73 351.8V323.4H1825.33ZM1711.33 485C1730.26 485 1745.73 479.4 1757.73 468.2C1769.99 456.733 1776.13 441.933 1776.13 423.8C1776.13 405.933 1769.99 391.4 1757.73 380.2C1745.73 369 1730.26 363.4 1711.33 363.4C1692.13 363.4 1676.39 369 1664.13 380.2C1652.13 391.4 1646.13 405.933 1646.13 423.8C1646.13 441.933 1652.13 456.733 1664.13 468.2C1676.39 479.4 1692.13 485 1711.33 485Z" fill="#0B2C31"/>
<path d="M1980.66 497.4C2003.86 497.4 2023.2 489.667 2038.66 474.2L2065.06 505C2055.73 516.467 2043.73 525.133 2029.06 531C2014.4 536.867 1997.86 539.8 1979.46 539.8C1956 539.8 1935.33 535.133 1917.46 525.8C1899.6 516.467 1885.73 503.533 1875.86 487C1866.26 470.2 1861.46 451.267 1861.46 430.2C1861.46 409.4 1866.13 390.733 1875.46 374.2C1885.06 357.4 1898.13 344.333 1914.66 335C1931.46 325.667 1950.4 321 1971.46 321C1991.46 321 2009.6 325.4 2025.86 334.2C2042.4 342.733 2055.46 355.133 2065.06 371.4C2074.66 387.4 2079.46 406.2 2079.46 427.8L1915.86 459.8C1920.93 472.067 1929.06 481.4 1940.26 487.8C1951.46 494.2 1964.93 497.4 1980.66 497.4ZM1971.46 361C1953.06 361 1938.13 367 1926.66 379C1915.46 391 1909.86 407.133 1909.86 427.4V427.8L2030.66 404.6C2027.2 391.533 2020.13 381 2009.46 373C1999.06 365 1986.4 361 1971.46 361Z" fill="#0B2C31"/>
<path d="M2163.1 354.6C2177.5 332.2 2202.83 321 2239.1 321V368.6C2234.83 367.8 2230.97 367.4 2227.5 367.4C2208.03 367.4 2192.83 373.133 2181.9 384.6C2170.97 395.8 2165.5 412.067 2165.5 433.4V537H2115.5V323.4H2163.1V354.6Z" fill="#0B2C31"/>
<path d="M2573.21 391.4C2588.68 396.467 2600.95 405 2610.01 417C2619.08 428.733 2623.61 443.4 2623.61 461C2623.61 485.267 2614.28 504.067 2595.61 517.4C2576.95 530.467 2549.75 537 2514.01 537H2374.81V257H2506.01C2539.08 257 2564.55 263.533 2582.41 276.6C2600.28 289.4 2609.21 307.133 2609.21 329.8C2609.21 343.667 2606.01 355.933 2599.61 366.6C2593.21 377.267 2584.41 385.533 2573.21 391.4ZM2426.81 297.8V375H2500.41C2518.55 375 2532.41 371.8 2542.01 365.4C2551.88 358.733 2556.81 349.133 2556.81 336.6C2556.81 323.8 2551.88 314.2 2542.01 307.8C2532.41 301.133 2518.55 297.8 2500.41 297.8H2426.81ZM2510.81 496.2C2551.08 496.2 2571.21 482.733 2571.21 455.8C2571.21 428.867 2551.08 415.4 2510.81 415.4H2426.81V496.2H2510.81Z" fill="#0B2C31"/>
<path d="M2763.91 497.4C2787.11 497.4 2806.44 489.667 2821.91 474.2L2848.31 505C2838.98 516.467 2826.98 525.133 2812.31 531C2797.65 536.867 2781.11 539.8 2762.71 539.8C2739.25 539.8 2718.58 535.133 2700.71 525.8C2682.85 516.467 2668.98 503.533 2659.11 487C2649.51 470.2 2644.71 451.267 2644.71 430.2C2644.71 409.4 2649.38 390.733 2658.71 374.2C2668.31 357.4 2681.38 344.333 2697.91 335C2714.71 325.667 2733.65 321 2754.71 321C2774.71 321 2792.85 325.4 2809.11 334.2C2825.65 342.733 2838.71 355.133 2848.31 371.4C2857.91 387.4 2862.71 406.2 2862.71 427.8L2699.11 459.8C2704.18 472.067 2712.31 481.4 2723.51 487.8C2734.71 494.2 2748.18 497.4 2763.91 497.4ZM2754.71 361C2736.31 361 2721.38 367 2709.91 379C2698.71 391 2693.11 407.133 2693.11 427.4V427.8L2813.91 404.6C2810.44 391.533 2803.38 381 2792.71 373C2782.31 365 2769.65 361 2754.71 361Z" fill="#0B2C31"/>
<path d="M3000.35 497.4C3023.55 497.4 3042.88 489.667 3058.35 474.2L3084.75 505C3075.42 516.467 3063.42 525.133 3048.75 531C3034.08 536.867 3017.55 539.8 2999.15 539.8C2975.68 539.8 2955.02 535.133 2937.15 525.8C2919.28 516.467 2905.42 503.533 2895.55 487C2885.95 470.2 2881.15 451.267 2881.15 430.2C2881.15 409.4 2885.82 390.733 2895.15 374.2C2904.75 357.4 2917.82 344.333 2934.35 335C2951.15 325.667 2970.08 321 2991.15 321C3011.15 321 3029.28 325.4 3045.55 334.2C3062.08 342.733 3075.15 355.133 3084.75 371.4C3094.35 387.4 3099.15 406.2 3099.15 427.8L2935.55 459.8C2940.62 472.067 2948.75 481.4 2959.95 487.8C2971.15 494.2 2984.62 497.4 3000.35 497.4ZM2991.15 361C2972.75 361 2957.82 367 2946.35 379C2935.15 391 2929.55 407.133 2929.55 427.4V427.8L3050.35 404.6C3046.88 391.533 3039.82 381 3029.15 373C3018.75 365 3006.08 361 2991.15 361Z" fill="#0B2C31"/>
<path d="M3182.79 354.6C3197.19 332.2 3222.52 321 3258.79 321V368.6C3254.52 367.8 3250.65 367.4 3247.19 367.4C3227.72 367.4 3212.52 373.133 3201.59 384.6C3190.65 395.8 3185.19 412.067 3185.19 433.4V537H3135.19V323.4H3182.79V354.6Z" fill="#0B2C31"/>
<path d="M437.402 579.569C355.519 535.955 199.468 453.004 129.514 416.242C118.539 410.472 105.104 412.522 96.3363 421.291L15.6625 501.964C15.6625 501.964 -25.9508 553.562 26.4812 601.002L185.736 760.256C233.176 812.688 284.773 771.075 284.773 771.075L444.325 611.523C453.538 602.31 451.205 586.768 439.644 580.75C438.901 580.361 438.152 579.965 437.402 579.569Z" fill="#0B2C31"/>
<path fill-rule="evenodd" clip-rule="evenodd" d="M735.37 339.641C735.108 338.333 736.989 337.796 737.442 339.054C740.616 347.815 744.195 360.6 744.754 374.848C745.284 388.262 740.143 401.138 730.781 410.5L730.788 410.507L586.362 554.934L586.036 554.609C586.036 554.609 554.548 603.123 463.523 554.637C358.468 498.67 131.302 377.966 120.561 373.136C110.597 368.66 72.9733 362.616 82.6745 414.912C82.9361 416.319 80.9285 416.857 80.4475 415.514C77.3434 406.781 73.9564 394.315 73.4048 380.47C72.8744 367.056 78.0156 354.179 87.3777 344.817L231.804 200.39L232.13 200.716C232.217 200.58 263.744 152.269 354.642 200.687C459.697 256.655 684.677 375.371 697.603 382.188C709.645 388.545 745.849 393.013 735.37 339.641ZM241.661 361.81C243.21 360.926 243.174 358.684 241.59 357.849L187.659 329.572C185.75 328.568 183.452 328.604 181.571 329.678L154.701 344.966C153.152 345.85 153.188 348.091 154.771 348.926L208.738 377.224C210.633 378.214 212.896 378.172 214.756 377.118L241.661 361.81ZM346.659 417.098C348.208 416.214 348.172 413.972 346.588 413.138L292.658 384.86C290.748 383.856 288.451 383.892 286.57 384.967L259.699 400.254C258.151 401.138 258.186 403.379 259.77 404.214L313.737 432.513C315.632 433.502 317.895 433.46 319.754 432.406L346.659 417.098ZM450.391 471.969C451.94 471.085 451.905 468.844 450.321 468.01L396.39 439.732C394.481 438.728 392.183 438.763 390.302 439.838L363.432 455.126C361.883 456.01 361.918 458.251 363.502 459.086L417.469 487.384C419.364 488.374 421.626 488.331 423.486 487.278L450.391 471.969ZM554.287 526.678C555.835 525.794 555.8 523.552 554.216 522.718L500.285 494.441C498.375 493.437 496.078 493.473 494.197 494.547L467.327 509.835C465.778 510.718 465.814 512.96 467.398 513.795L521.364 542.094C523.259 543.083 525.522 543.041 527.381 541.987L554.287 526.678ZM357.471 246.847C359.019 245.963 358.984 243.722 357.4 242.887L303.469 214.611C301.559 213.606 299.262 213.642 297.381 214.717L270.511 230.004C268.962 230.888 268.998 233.129 270.581 233.963L324.548 262.263C326.443 263.253 328.706 263.21 330.565 262.157L357.471 246.847ZM462.342 300.566C463.89 299.682 463.855 297.441 462.271 296.607L408.34 268.33C406.431 267.326 404.132 267.361 402.252 268.436L375.382 283.723C373.834 284.607 373.869 286.848 375.453 287.683L429.419 315.982C431.313 316.971 433.576 316.929 435.436 315.875L462.342 300.566ZM566.103 355.41C567.651 354.526 567.615 352.284 566.032 351.449L512.1 323.173C510.191 322.169 507.893 322.204 506.013 323.279L479.142 338.566C477.594 339.45 477.63 341.692 479.214 342.526L533.18 370.825C535.074 371.815 537.337 371.772 539.197 370.719L566.103 355.41ZM669.722 410.394C671.27 409.51 671.235 407.269 669.651 406.435L615.72 378.157C613.811 377.153 611.513 377.188 609.632 378.263L582.762 393.551C581.214 394.435 581.249 396.677 582.832 397.511L636.799 425.809C638.694 426.799 640.957 426.756 642.816 425.703L669.722 410.394Z" fill="#12545E"/>
<path d="M374.696 146.961C367.067 154.591 369.202 167.389 378.847 172.24C380.643 173.145 382.46 174.086 384.299 175.062C467.214 219.227 624.807 302.475 693.92 338.962C701.839 343.148 711.654 339.598 715.048 331.311C740.002 270.535 716.582 199.061 727.896 177.169C736.41 160.707 746.571 152.201 746.571 152.201C752.857 157.384 756.527 150.815 756.527 150.815C762.099 144.804 751.563 142.768 765.458 129.269C773.137 121.816 774.311 131.49 787.534 118.634C804.532 102.116 748.925 50.738 744.266 46.4883C740.016 41.8285 688.638 -13.7784 672.12 3.22047C659.264 16.4434 668.938 17.6171 661.485 25.2963C647.986 39.1909 645.949 28.655 639.939 34.227C639.939 34.227 633.37 37.897 638.553 44.1831C638.553 44.1831 630.047 54.3584 613.585 62.8579C586.107 77.0566 480.55 36.5393 416.062 105.581L374.696 146.947V146.961Z" fill="#0B2C31"/>
</svg>
